<svg xmlns="http://www.w3.org/2000/svg" xmlns:xlink="http://www.w3.org/1999/xlink" width="500" zoomAndPan="magnify" viewBox="0 0 375 374.999991" height="500" preserveAspectRatio="xMidYMid meet" version="1.0"><defs><g/><clipPath id="b43fc7ab9c"><path d="M 99.308594 42.929688 L 275.558594 42.929688 L 275.558594 219.179688 L 99.308594 219.179688 Z M 99.308594 42.929688 " clip-rule="nonzero"/></clipPath></defs><g clip-path="url(#b43fc7ab9c)"><path fill="#4f46e5" d="M 210.929688 42.929688 L 164.066406 42.929688 C 163.003906 42.929688 161.945312 42.957031 160.886719 43.007812 C 159.828125 43.0625 158.773438 43.140625 157.71875 43.242188 C 156.664062 43.347656 155.613281 43.476562 154.5625 43.632812 C 153.515625 43.789062 152.472656 43.96875 151.433594 44.175781 C 150.390625 44.382812 149.359375 44.613281 148.332031 44.871094 C 147.300781 45.128906 146.28125 45.410156 145.265625 45.71875 C 144.253906 46.027344 143.246094 46.359375 142.25 46.714844 C 141.25 47.074219 140.261719 47.453125 139.285156 47.859375 C 138.304688 48.265625 137.335938 48.695312 136.378906 49.148438 C 135.421875 49.601562 134.472656 50.078125 133.539062 50.578125 C 132.605469 51.078125 131.683594 51.597656 130.773438 52.144531 C 129.863281 52.6875 128.96875 53.253906 128.089844 53.84375 C 127.207031 54.433594 126.339844 55.042969 125.488281 55.675781 C 124.640625 56.304688 123.804688 56.957031 122.984375 57.628906 C 122.164062 58.300781 121.363281 58.996094 120.578125 59.707031 C 119.792969 60.417969 119.023438 61.148438 118.277344 61.898438 C 117.527344 62.648438 116.796875 63.414062 116.082031 64.199219 C 115.371094 64.984375 114.679688 65.789062 114.007812 66.605469 C 113.335938 67.425781 112.683594 68.261719 112.050781 69.113281 C 111.421875 69.964844 110.8125 70.828125 110.222656 71.710938 C 109.632812 72.59375 109.066406 73.488281 108.523438 74.394531 C 107.976562 75.304688 107.453125 76.226562 106.957031 77.160156 C 106.457031 78.097656 105.980469 79.042969 105.527344 80 C 105.074219 80.957031 104.644531 81.925781 104.238281 82.90625 C 103.832031 83.886719 103.453125 84.875 103.09375 85.871094 C 102.738281 86.871094 102.40625 87.875 102.097656 88.890625 C 101.789062 89.902344 101.507812 90.925781 101.25 91.953125 C 100.992188 92.980469 100.761719 94.015625 100.554688 95.054688 C 100.347656 96.09375 100.164062 97.136719 100.011719 98.1875 C 99.855469 99.234375 99.722656 100.285156 99.621094 101.339844 C 99.515625 102.394531 99.4375 103.453125 99.386719 104.511719 C 99.335938 105.570312 99.308594 106.628906 99.308594 107.6875 L 99.308594 154.554688 C 99.308594 155.613281 99.335938 156.671875 99.386719 157.730469 C 99.4375 158.789062 99.515625 159.847656 99.621094 160.902344 C 99.722656 161.957031 99.855469 163.007812 100.011719 164.054688 C 100.164062 165.105469 100.347656 166.148438 100.554688 167.1875 C 100.761719 168.226562 100.992188 169.261719 101.25 170.289062 C 101.507812 171.316406 101.789062 172.335938 102.097656 173.351562 C 102.40625 174.367188 102.738281 175.371094 103.09375 176.371094 C 103.453125 177.367188 103.832031 178.355469 104.238281 179.335938 C 104.644531 180.3125 105.074219 181.28125 105.527344 182.242188 C 105.980469 183.199219 106.457031 184.144531 106.957031 185.078125 C 107.453125 186.015625 107.976562 186.9375 108.523438 187.84375 C 109.066406 188.753906 109.632812 189.648438 110.222656 190.53125 C 110.8125 191.410156 111.421875 192.277344 112.050781 193.128906 C 112.683594 193.980469 113.335938 194.816406 114.007812 195.636719 C 114.679688 196.453125 115.371094 197.257812 116.082031 198.042969 C 116.796875 198.828125 117.527344 199.59375 118.277344 200.34375 C 119.023438 201.09375 119.792969 201.824219 120.578125 202.535156 C 121.363281 203.246094 122.164062 203.9375 122.984375 204.609375 C 123.804688 205.285156 124.636719 205.933594 125.488281 206.566406 C 126.339844 207.199219 127.207031 207.808594 128.089844 208.398438 C 128.96875 208.984375 129.863281 209.550781 130.773438 210.097656 C 131.683594 210.640625 132.605469 211.164062 133.539062 211.664062 C 134.472656 212.164062 135.421875 212.640625 136.378906 213.09375 C 137.335938 213.546875 138.304688 213.976562 139.285156 214.378906 C 140.261719 214.785156 141.25 215.167969 142.25 215.523438 C 143.246094 215.882812 144.253906 216.214844 145.265625 216.523438 C 146.28125 216.828125 147.300781 217.113281 148.332031 217.371094 C 149.359375 217.628906 150.390625 217.859375 151.433594 218.066406 C 152.472656 218.273438 153.515625 218.453125 154.5625 218.609375 C 155.613281 218.765625 156.664062 218.894531 157.71875 219 C 158.773438 219.101562 159.828125 219.179688 160.886719 219.230469 C 161.945312 219.285156 163.003906 219.308594 164.066406 219.308594 L 210.929688 219.308594 C 211.992188 219.308594 213.050781 219.285156 214.109375 219.230469 C 215.167969 219.179688 216.222656 219.101562 217.277344 219 C 218.332031 218.894531 219.386719 218.765625 220.433594 218.609375 C 221.480469 218.453125 222.527344 218.273438 223.566406 218.066406 C 224.605469 217.859375 225.636719 217.628906 226.667969 217.371094 C 227.695312 217.113281 228.714844 216.828125 229.730469 216.523438 C 230.742188 216.214844 231.75 215.882812 232.746094 215.523438 C 233.746094 215.167969 234.734375 214.785156 235.710938 214.382812 C 236.691406 213.976562 237.660156 213.546875 238.617188 213.09375 C 239.578125 212.640625 240.523438 212.164062 241.457031 211.664062 C 242.390625 211.164062 243.3125 210.640625 244.222656 210.097656 C 245.132812 209.550781 246.027344 208.984375 246.910156 208.398438 C 247.789062 207.808594 248.65625 207.199219 249.507812 206.566406 C 250.359375 205.933594 251.191406 205.285156 252.011719 204.609375 C 252.832031 203.9375 253.632812 203.246094 254.417969 202.535156 C 255.203125 201.824219 255.972656 201.09375 256.722656 200.34375 C 257.46875 199.59375 258.199219 198.828125 258.914062 198.042969 C 259.625 197.257812 260.316406 196.453125 260.988281 195.636719 C 261.660156 194.816406 262.3125 193.980469 262.945312 193.128906 C 263.574219 192.277344 264.1875 191.410156 264.773438 190.53125 C 265.363281 189.648438 265.929688 188.753906 266.476562 187.84375 C 267.019531 186.9375 267.542969 186.015625 268.042969 185.078125 C 268.542969 184.144531 269.015625 183.199219 269.46875 182.242188 C 269.921875 181.28125 270.351562 180.3125 270.757812 179.335938 C 271.164062 178.355469 271.546875 177.367188 271.902344 176.371094 C 272.257812 175.371094 272.59375 174.367188 272.898438 173.351562 C 273.207031 172.335938 273.488281 171.316406 273.746094 170.289062 C 274.003906 169.261719 274.238281 168.226562 274.445312 167.1875 C 274.648438 166.148438 274.832031 165.105469 274.988281 164.054688 C 275.140625 163.007812 275.273438 161.957031 275.375 160.902344 C 275.480469 159.847656 275.558594 158.789062 275.609375 157.730469 C 275.660156 156.671875 275.6875 155.613281 275.6875 154.554688 L 275.6875 107.6875 C 275.6875 106.628906 275.660156 105.570312 275.609375 104.511719 C 275.558594 103.453125 275.480469 102.394531 275.375 101.339844 C 275.273438 100.285156 275.140625 99.234375 274.988281 98.1875 C 274.832031 97.136719 274.648438 96.09375 274.445312 95.054688 C 274.238281 94.015625 274.003906 92.980469 273.746094 91.953125 C 273.488281 90.925781 273.207031 89.902344 272.898438 88.890625 C 272.589844 87.875 272.257812 86.871094 271.902344 85.871094 C 271.546875 84.875 271.164062 83.886719 270.757812 82.90625 C 270.351562 81.925781 269.921875 80.957031 269.46875 80 C 269.015625 79.042969 268.542969 78.097656 268.042969 77.160156 C 267.542969 76.226562 267.019531 75.304688 266.476562 74.394531 C 265.929688 73.488281 265.363281 72.59375 264.773438 71.710938 C 264.1875 70.828125 263.574219 69.964844 262.945312 69.113281 C 262.3125 68.261719 261.660156 67.425781 260.988281 66.605469 C 260.316406 65.789062 259.625 64.984375 258.914062 64.199219 C 258.199219 63.414062 257.46875 62.648438 256.722656 61.898438 C 255.972656 61.148438 255.203125 60.417969 254.417969 59.707031 C 253.632812 58.996094 252.832031 58.300781 252.011719 57.628906 C 251.191406 56.957031 250.359375 56.304688 249.507812 55.675781 C 248.65625 55.042969 247.789062 54.433594 246.90625 53.84375 C 246.027344 53.253906 245.132812 52.6875 244.222656 52.144531 C 243.3125 51.597656 242.390625 51.078125 241.457031 50.578125 C 240.523438 50.078125 239.578125 49.601562 238.617188 49.148438 C 237.660156 48.695312 236.691406 48.265625 235.710938 47.859375 C 234.734375 47.453125 233.746094 47.074219 232.746094 46.714844 C 231.75 46.359375 230.742188 46.027344 229.730469 45.71875 C 228.714844 45.410156 227.695312 45.128906 226.667969 44.871094 C 225.636719 44.613281 224.605469 44.382812 223.566406 44.175781 C 222.527344 43.96875 221.480469 43.789062 220.433594 43.632812 C 219.386719 43.476562 218.332031 43.347656 217.277344 43.242188 C 216.222656 43.140625 215.167969 43.0625 214.109375 43.007812 C 213.050781 42.957031 211.992188 42.929688 210.929688 42.929688 Z M 185.261719 181.515625 C 169.988281 180.695312 143.402344 167.84375 143.402344 136.128906 L 143.402344 90.175781 C 143.402344 89.554688 143.464844 88.941406 143.585938 88.332031 C 143.707031 87.722656 143.886719 87.132812 144.121094 86.558594 C 144.359375 85.988281 144.652344 85.441406 144.996094 84.925781 C 145.339844 84.410156 145.734375 83.933594 146.171875 83.496094 C 146.609375 83.054688 147.085938 82.664062 147.601562 82.320312 C 148.117188 81.972656 148.664062 81.683594 149.238281 81.445312 C 149.808594 81.207031 150.402344 81.03125 151.007812 80.910156 C 151.617188 80.789062 152.230469 80.726562 152.851562 80.726562 L 159.152344 80.726562 C 159.773438 80.726562 160.386719 80.789062 160.996094 80.910156 C 161.605469 81.03125 162.195312 81.207031 162.769531 81.445312 C 163.339844 81.683594 163.886719 81.972656 164.402344 82.320312 C 164.917969 82.664062 165.394531 83.054688 165.832031 83.496094 C 166.273438 83.933594 166.664062 84.410156 167.007812 84.925781 C 167.351562 85.441406 167.644531 85.988281 167.882812 86.558594 C 168.117188 87.132812 168.296875 87.722656 168.417969 88.332031 C 168.539062 88.941406 168.601562 89.554688 168.601562 90.175781 L 168.601562 136.757812 C 168.582031 137.917969 168.667969 139.066406 168.859375 140.210938 C 169.050781 141.351562 169.339844 142.46875 169.730469 143.558594 C 170.121094 144.648438 170.605469 145.699219 171.183594 146.699219 C 171.761719 147.703125 172.421875 148.648438 173.171875 149.53125 C 173.917969 150.417969 174.742188 151.226562 175.632812 151.964844 C 176.527344 152.703125 177.480469 153.351562 178.492188 153.917969 C 179.5 154.484375 180.554688 154.957031 181.648438 155.332031 C 182.746094 155.707031 183.863281 155.984375 185.011719 156.160156 C 186.183594 156.320312 187.359375 156.367188 188.539062 156.304688 C 189.71875 156.242188 190.882812 156.070312 192.035156 155.789062 C 193.183594 155.507812 194.292969 155.125 195.371094 154.632812 C 196.445312 154.144531 197.46875 153.558594 198.433594 152.875 C 199.402344 152.195312 200.296875 151.429688 201.117188 150.582031 C 201.941406 149.730469 202.675781 148.8125 203.328125 147.824219 C 203.976562 146.835938 204.53125 145.796875 204.984375 144.707031 C 205.441406 143.613281 205.789062 142.492188 206.035156 141.332031 C 206.277344 140.175781 206.414062 139.007812 206.4375 137.824219 C 206.460938 136.640625 206.375 135.46875 206.179688 134.300781 C 205.984375 133.136719 205.679688 131.996094 205.273438 130.886719 C 204.863281 129.78125 204.351562 128.71875 203.746094 127.703125 C 203.136719 126.691406 202.4375 125.742188 201.652344 124.859375 C 200.863281 123.976562 200.003906 123.175781 199.066406 122.453125 C 198.128906 121.734375 197.132812 121.105469 196.078125 120.570312 C 195.019531 120.039062 193.925781 119.605469 192.789062 119.277344 C 192.039062 119.074219 191.339844 118.761719 190.691406 118.328125 C 190.042969 117.898438 189.480469 117.378906 189.003906 116.761719 C 188.527344 116.148438 188.160156 115.476562 187.902344 114.742188 C 187.644531 114.007812 187.507812 113.253906 187.5 112.476562 L 187.5 101.074219 C 187.496094 100.558594 187.546875 100.050781 187.65625 99.550781 C 187.765625 99.046875 187.925781 98.5625 188.140625 98.097656 C 188.355469 97.632812 188.617188 97.191406 188.929688 96.785156 C 189.238281 96.375 189.589844 96.003906 189.984375 95.671875 C 190.375 95.339844 190.796875 95.054688 191.253906 94.816406 C 191.707031 94.578125 192.183594 94.390625 192.679688 94.257812 C 193.171875 94.121094 193.675781 94.042969 194.191406 94.019531 C 194.703125 93.992188 195.210938 94.023438 195.71875 94.113281 C 197.085938 94.359375 198.433594 94.671875 199.769531 95.050781 C 201.105469 95.425781 202.421875 95.863281 203.71875 96.363281 C 205.011719 96.863281 206.28125 97.425781 207.523438 98.046875 C 208.761719 98.664062 209.972656 99.34375 211.152344 100.078125 C 212.328125 100.8125 213.46875 101.601562 214.574219 102.441406 C 215.675781 103.285156 216.738281 104.175781 217.757812 105.117188 C 218.777344 106.0625 219.746094 107.046875 220.671875 108.082031 C 221.597656 109.117188 222.472656 110.191406 223.300781 111.308594 C 224.125 112.425781 224.894531 113.578125 225.609375 114.769531 C 226.324219 115.957031 226.980469 117.179688 227.582031 118.429688 C 228.179688 119.679688 228.722656 120.957031 229.199219 122.261719 C 229.679688 123.5625 230.097656 124.886719 230.453125 126.226562 C 230.804688 127.570312 231.097656 128.925781 231.324219 130.292969 C 231.550781 131.664062 231.710938 133.039062 231.808594 134.425781 C 231.90625 135.808594 231.9375 137.195312 231.902344 138.582031 C 231.867188 139.972656 231.769531 141.355469 231.601562 142.730469 C 231.4375 144.109375 231.210938 145.476562 230.914062 146.835938 C 230.621094 148.191406 230.265625 149.53125 229.84375 150.851562 C 229.421875 152.175781 228.941406 153.476562 228.398438 154.753906 C 227.855469 156.03125 227.253906 157.277344 226.589844 158.5 C 225.929688 159.71875 225.210938 160.90625 224.4375 162.058594 C 223.667969 163.210938 222.839844 164.324219 221.960938 165.398438 C 221.082031 166.476562 220.15625 167.503906 219.179688 168.492188 C 218.203125 169.480469 217.183594 170.417969 216.121094 171.308594 C 215.054688 172.199219 213.953125 173.039062 212.808594 173.824219 C 211.664062 174.613281 210.488281 175.34375 209.273438 176.019531 C 208.0625 176.695312 206.820312 177.308594 205.546875 177.867188 C 204.277344 178.425781 202.984375 178.921875 201.664062 179.359375 C 200.347656 179.792969 199.011719 180.167969 197.660156 180.476562 C 196.308594 180.785156 194.941406 181.03125 193.566406 181.214844 C 192.191406 181.394531 190.808594 181.507812 189.421875 181.558594 C 188.035156 181.609375 186.648438 181.59375 185.261719 181.515625 Z M 185.261719 181.515625 " fill-opacity="1" fill-rule="nonzero"/></g><g fill="#4f46e5" fill-opacity="1"><g transform="translate(0.769572, 312.704584)"><g><path d="M 26.1875 0.75 C 22.988281 0.75 19.800781 0.648438 16.625 0.453125 C 13.457031 0.265625 10.160156 -0.191406 6.734375 -0.921875 L 6.734375 -57.5 C 9.429688 -58 12.378906 -58.375 15.578125 -58.625 C 18.773438 -58.882812 21.75 -59.015625 24.5 -59.015625 C 28.207031 -59.015625 31.617188 -58.75 34.734375 -58.21875 C 37.847656 -57.6875 40.523438 -56.773438 42.765625 -55.484375 C 45.015625 -54.191406 46.769531 -52.492188 48.03125 -50.390625 C 49.289062 -48.285156 49.921875 -45.6875 49.921875 -42.59375 C 49.921875 -37.9375 47.675781 -34.265625 43.1875 -31.578125 C 46.894531 -30.171875 49.421875 -28.257812 50.765625 -25.84375 C 52.109375 -23.425781 52.78125 -20.703125 52.78125 -17.671875 C 52.78125 -11.554688 50.550781 -6.957031 46.09375 -3.875 C 41.632812 -0.789062 35 0.75 26.1875 0.75 Z M 19.53125 -25.421875 L 19.53125 -10.359375 C 20.488281 -10.242188 21.523438 -10.15625 22.640625 -10.09375 C 23.765625 -10.039062 25 -10.015625 26.34375 -10.015625 C 30.28125 -10.015625 33.453125 -10.578125 35.859375 -11.703125 C 38.273438 -12.828125 39.484375 -14.90625 39.484375 -17.9375 C 39.484375 -20.625 38.472656 -22.539062 36.453125 -23.6875 C 34.429688 -24.84375 31.539062 -25.421875 27.78125 -25.421875 Z M 19.53125 -35.4375 L 25.9375 -35.4375 C 29.96875 -35.4375 32.851562 -35.957031 34.59375 -37 C 36.332031 -38.039062 37.203125 -39.710938 37.203125 -42.015625 C 37.203125 -44.367188 36.304688 -46.019531 34.515625 -46.96875 C 32.722656 -47.925781 30.085938 -48.40625 26.609375 -48.40625 C 25.484375 -48.40625 24.273438 -48.390625 22.984375 -48.359375 C 21.691406 -48.335938 20.539062 -48.269531 19.53125 -48.15625 Z M 19.53125 -35.4375 "/></g></g></g><g fill="#4f46e5" fill-opacity="1"><g transform="translate(57.337828, 312.704584)"><g><path d="M 45.203125 -44.28125 C 42.679688 -35.75 40.046875 -27.75 37.296875 -20.28125 C 34.546875 -12.820312 31.539062 -5.582031 28.28125 1.4375 C 27.101562 3.957031 25.925781 6.101562 24.75 7.875 C 23.570312 9.644531 22.28125 11.101562 20.875 12.25 C 19.476562 13.394531 17.894531 14.234375 16.125 14.765625 C 14.351562 15.304688 12.289062 15.578125 9.9375 15.578125 C 7.96875 15.578125 6.15625 15.394531 4.5 15.03125 C 2.84375 14.664062 1.484375 14.257812 0.421875 13.8125 L 2.609375 3.78125 C 3.898438 4.238281 5.050781 4.550781 6.0625 4.71875 C 7.070312 4.882812 8.140625 4.96875 9.265625 4.96875 C 11.503906 4.96875 13.226562 4.363281 14.4375 3.15625 C 15.644531 1.945312 16.671875 0.273438 17.515625 -1.859375 C 14.648438 -7.460938 11.785156 -13.757812 8.921875 -20.75 C 6.054688 -27.738281 3.363281 -35.582031 0.84375 -44.28125 L 14.140625 -44.28125 C 14.703125 -42.09375 15.363281 -39.722656 16.125 -37.171875 C 16.882812 -34.617188 17.679688 -32.035156 18.515625 -29.421875 C 19.359375 -26.816406 20.210938 -24.273438 21.078125 -21.796875 C 21.953125 -19.328125 22.785156 -17.082031 23.578125 -15.0625 C 24.304688 -17.082031 25.0625 -19.328125 25.84375 -21.796875 C 26.632812 -24.273438 27.40625 -26.816406 28.15625 -29.421875 C 28.914062 -32.035156 29.644531 -34.617188 30.34375 -37.171875 C 31.050781 -39.722656 31.6875 -42.09375 32.25 -44.28125 Z M 45.203125 -44.28125 "/></g></g></g><g fill="#4f46e5" fill-opacity="1"><g transform="translate(103.383714, 312.704584)"><g><path d="M 5.46875 -55.3125 L 18.015625 -57.328125 L 18.015625 -44.28125 L 33.078125 -44.28125 L 33.078125 -33.84375 L 18.015625 -33.84375 L 18.015625 -18.265625 C 18.015625 -15.628906 18.476562 -13.523438 19.40625 -11.953125 C 20.332031 -10.378906 22.195312 -9.59375 25 -9.59375 C 26.351562 -9.59375 27.742188 -9.71875 29.171875 -9.96875 C 30.597656 -10.226562 31.898438 -10.582031 33.078125 -11.03125 L 34.859375 -1.265625 C 33.335938 -0.648438 31.648438 -0.117188 29.796875 0.328125 C 27.953125 0.785156 25.679688 1.015625 22.984375 1.015625 C 19.554688 1.015625 16.71875 0.550781 14.46875 -0.375 C 12.226562 -1.300781 10.4375 -2.59375 9.09375 -4.25 C 7.75 -5.90625 6.804688 -7.910156 6.265625 -10.265625 C 5.734375 -12.628906 5.46875 -15.238281 5.46875 -18.09375 Z M 5.46875 -55.3125 "/></g></g></g><g fill="#4f46e5" fill-opacity="1"><g transform="translate(140.759154, 312.704584)"><g><path d="M 3.78125 -21.796875 C 3.78125 -25.734375 4.382812 -29.171875 5.59375 -32.109375 C 6.800781 -35.054688 8.382812 -37.515625 10.34375 -39.484375 C 12.3125 -41.453125 14.570312 -42.941406 17.125 -43.953125 C 19.6875 -44.960938 22.3125 -45.46875 25 -45.46875 C 31.289062 -45.46875 36.257812 -43.539062 39.90625 -39.6875 C 43.550781 -35.84375 45.375 -30.191406 45.375 -22.734375 C 45.375 -22.003906 45.34375 -21.203125 45.28125 -20.328125 C 45.226562 -19.460938 45.175781 -18.691406 45.125 -18.015625 L 16.671875 -18.015625 C 16.953125 -15.429688 18.15625 -13.378906 20.28125 -11.859375 C 22.414062 -10.347656 25.28125 -9.59375 28.875 -9.59375 C 31.175781 -9.59375 33.4375 -9.800781 35.65625 -10.21875 C 37.875 -10.644531 39.679688 -11.164062 41.078125 -11.78125 L 42.765625 -1.59375 C 42.085938 -1.257812 41.1875 -0.921875 40.0625 -0.578125 C 38.945312 -0.242188 37.703125 0.046875 36.328125 0.296875 C 34.953125 0.546875 33.476562 0.753906 31.90625 0.921875 C 30.332031 1.085938 28.757812 1.171875 27.1875 1.171875 C 23.207031 1.171875 19.742188 0.582031 16.796875 -0.59375 C 13.847656 -1.769531 11.40625 -3.378906 9.46875 -5.421875 C 7.53125 -7.472656 6.097656 -9.898438 5.171875 -12.703125 C 4.242188 -15.515625 3.78125 -18.546875 3.78125 -21.796875 Z M 33.25 -26.609375 C 33.195312 -27.671875 33.015625 -28.707031 32.703125 -29.71875 C 32.398438 -30.726562 31.925781 -31.625 31.28125 -32.40625 C 30.632812 -33.195312 29.816406 -33.84375 28.828125 -34.34375 C 27.847656 -34.851562 26.628906 -35.109375 25.171875 -35.109375 C 23.765625 -35.109375 22.554688 -34.867188 21.546875 -34.390625 C 20.535156 -33.910156 19.691406 -33.273438 19.015625 -32.484375 C 18.347656 -31.703125 17.832031 -30.789062 17.46875 -29.75 C 17.101562 -28.71875 16.835938 -27.671875 16.671875 -26.609375 Z M 33.25 -26.609375 "/></g></g></g><g fill="#4f46e5" fill-opacity="1"><g transform="translate(189.919651, 312.704584)"><g><path d="M 26.1875 0.75 C 22.988281 0.75 19.800781 0.648438 16.625 0.453125 C 13.457031 0.265625 10.160156 -0.191406 6.734375 -0.921875 L 6.734375 -57.5 C 9.429688 -58 12.378906 -58.375 15.578125 -58.625 C 18.773438 -58.882812 21.75 -59.015625 24.5 -59.015625 C 28.207031 -59.015625 31.617188 -58.75 34.734375 -58.21875 C 37.847656 -57.6875 40.523438 -56.773438 42.765625 -55.484375 C 45.015625 -54.191406 46.769531 -52.492188 48.03125 -50.390625 C 49.289062 -48.285156 49.921875 -45.6875 49.921875 -42.59375 C 49.921875 -37.9375 47.675781 -34.265625 43.1875 -31.578125 C 46.894531 -30.171875 49.421875 -28.257812 50.765625 -25.84375 C 52.109375 -23.425781 52.78125 -20.703125 52.78125 -17.671875 C 52.78125 -11.554688 50.550781 -6.957031 46.09375 -3.875 C 41.632812 -0.789062 35 0.75 26.1875 0.75 Z M 19.53125 -25.421875 L 19.53125 -10.359375 C 20.488281 -10.242188 21.523438 -10.15625 22.640625 -10.09375 C 23.765625 -10.039062 25 -10.015625 26.34375 -10.015625 C 30.28125 -10.015625 33.453125 -10.578125 35.859375 -11.703125 C 38.273438 -12.828125 39.484375 -14.90625 39.484375 -17.9375 C 39.484375 -20.625 38.472656 -22.539062 36.453125 -23.6875 C 34.429688 -24.84375 31.539062 -25.421875 27.78125 -25.421875 Z M 19.53125 -35.4375 L 25.9375 -35.4375 C 29.96875 -35.4375 32.851562 -35.957031 34.59375 -37 C 36.332031 -38.039062 37.203125 -39.710938 37.203125 -42.015625 C 37.203125 -44.367188 36.304688 -46.019531 34.515625 -46.96875 C 32.722656 -47.925781 30.085938 -48.40625 26.609375 -48.40625 C 25.484375 -48.40625 24.273438 -48.390625 22.984375 -48.359375 C 21.691406 -48.335938 20.539062 -48.269531 19.53125 -48.15625 Z M 19.53125 -35.4375 "/></g></g></g><g fill="#4f46e5" fill-opacity="1"><g transform="translate(246.487908, 312.704584)"><g><path d="M 23.578125 0.84375 C 19.921875 0.78125 16.957031 0.382812 14.6875 -0.34375 C 12.414062 -1.070312 10.617188 -2.09375 9.296875 -3.40625 C 7.984375 -4.726562 7.085938 -6.328125 6.609375 -8.203125 C 6.128906 -10.085938 5.890625 -12.207031 5.890625 -14.5625 L 5.890625 -63.3125 L 18.4375 -65.328125 L 18.4375 -17.09375 C 18.4375 -15.96875 18.519531 -14.957031 18.6875 -14.0625 C 18.851562 -13.164062 19.175781 -12.40625 19.65625 -11.78125 C 20.132812 -11.164062 20.820312 -10.660156 21.71875 -10.265625 C 22.613281 -9.878906 23.820312 -9.628906 25.34375 -9.515625 Z M 23.578125 0.84375 "/></g></g></g><g fill="#4f46e5" fill-opacity="1"><g transform="translate(273.088444, 312.704584)"><g><path d="M 47.3125 -22.21875 C 47.3125 -18.738281 46.804688 -15.550781 45.796875 -12.65625 C 44.785156 -9.769531 43.328125 -7.300781 41.421875 -5.25 C 39.515625 -3.207031 37.226562 -1.625 34.5625 -0.5 C 31.894531 0.613281 28.90625 1.171875 25.59375 1.171875 C 22.332031 1.171875 19.367188 0.613281 16.703125 -0.5 C 14.046875 -1.625 11.757812 -3.207031 9.84375 -5.25 C 7.9375 -7.300781 6.445312 -9.769531 5.375 -12.65625 C 4.3125 -15.550781 3.78125 -18.738281 3.78125 -22.21875 C 3.78125 -25.695312 4.328125 -28.867188 5.421875 -31.734375 C 6.523438 -34.597656 8.039062 -37.039062 9.96875 -39.0625 C 11.90625 -41.082031 14.207031 -42.65625 16.875 -43.78125 C 19.539062 -44.90625 22.445312 -45.46875 25.59375 -45.46875 C 28.789062 -45.46875 31.722656 -44.90625 34.390625 -43.78125 C 37.054688 -42.65625 39.34375 -41.082031 41.25 -39.0625 C 43.15625 -37.039062 44.640625 -34.597656 45.703125 -31.734375 C 46.773438 -28.867188 47.3125 -25.695312 47.3125 -22.21875 Z M 34.515625 -22.21875 C 34.515625 -26.09375 33.742188 -29.140625 32.203125 -31.359375 C 30.660156 -33.578125 28.457031 -34.6875 25.59375 -34.6875 C 22.726562 -34.6875 20.507812 -33.578125 18.9375 -31.359375 C 17.363281 -29.140625 16.578125 -26.09375 16.578125 -22.21875 C 16.578125 -18.351562 17.363281 -15.28125 18.9375 -13 C 20.507812 -10.726562 22.726562 -9.59375 25.59375 -9.59375 C 28.457031 -9.59375 30.660156 -10.726562 32.203125 -13 C 33.742188 -15.28125 34.515625 -18.351562 34.515625 -22.21875 Z M 34.515625 -22.21875 "/></g></g></g><g fill="#4f46e5" fill-opacity="1"><g transform="translate(324.185038, 312.704584)"><g><path d="M 16.578125 -23.578125 C 16.578125 -16.554688 19.414062 -13.046875 25.09375 -13.046875 C 26.382812 -13.046875 27.585938 -13.210938 28.703125 -13.546875 C 29.828125 -13.890625 30.785156 -14.285156 31.578125 -14.734375 L 31.578125 -34.765625 C 30.953125 -34.878906 30.21875 -34.976562 29.375 -35.0625 C 28.539062 -35.144531 27.5625 -35.1875 26.4375 -35.1875 C 23.125 -35.1875 20.648438 -34.09375 19.015625 -31.90625 C 17.390625 -29.71875 16.578125 -26.941406 16.578125 -23.578125 Z M 44.109375 -5.5625 C 44.109375 1.675781 42.269531 7.050781 38.59375 10.5625 C 34.914062 14.070312 29.234375 15.828125 21.546875 15.828125 C 18.859375 15.828125 16.164062 15.585938 13.46875 15.109375 C 10.769531 14.628906 8.273438 14 5.984375 13.21875 L 8.171875 2.6875 C 10.128906 3.476562 12.1875 4.097656 14.34375 4.546875 C 16.507812 4.992188 18.96875 5.21875 21.71875 5.21875 C 25.3125 5.21875 27.851562 4.429688 29.34375 2.859375 C 30.832031 1.285156 31.578125 -0.734375 31.578125 -3.203125 L 31.578125 -4.796875 C 30.222656 -4.179688 28.828125 -3.71875 27.390625 -3.40625 C 25.960938 -3.101562 24.410156 -2.953125 22.734375 -2.953125 C 16.609375 -2.953125 11.914062 -4.757812 8.65625 -8.375 C 5.40625 -12 3.78125 -17.066406 3.78125 -23.578125 C 3.78125 -26.828125 4.285156 -29.785156 5.296875 -32.453125 C 6.304688 -35.117188 7.78125 -37.40625 9.71875 -39.3125 C 11.65625 -41.21875 14.023438 -42.691406 16.828125 -43.734375 C 19.640625 -44.773438 22.8125 -45.296875 26.34375 -45.296875 C 27.863281 -45.296875 29.421875 -45.222656 31.015625 -45.078125 C 32.617188 -44.941406 34.207031 -44.757812 35.78125 -44.53125 C 37.351562 -44.3125 38.851562 -44.046875 40.28125 -43.734375 C 41.71875 -43.421875 42.992188 -43.097656 44.109375 -42.765625 Z M 44.109375 -5.5625 "/></g></g></g></svg>